<svg xmlns="http://www.w3.org/2000/svg" xmlns:xlink="http://www.w3.org/1999/xlink" width="336" zoomAndPan="magnify" viewBox="0 0 252 143.999998" height="192" preserveAspectRatio="xMidYMid meet" version="1.0"><defs><g/></defs><rect x="-25.2" width="302.4" fill="#ffffff" y="-14.4" height="172.799997" fill-opacity="1"/><rect x="-25.2" width="302.4" fill="#000000" y="-14.4" height="172.799997" fill-opacity="1"/><g fill="#d9d9d9" fill-opacity="1"><g transform="translate(45.553691, 94.923048)"><g><path d="M 48.328125 0 L 48.265625 -28.1875 L 34.4375 -4.96875 L 29.53125 -4.96875 L 15.78125 -27.59375 L 15.78125 0 L 5.578125 0 L 5.578125 -46.984375 L 14.5625 -46.984375 L 32.15625 -17.78125 L 49.46875 -46.984375 L 58.40625 -46.984375 L 58.53125 0 Z M 48.328125 0 "/></g></g></g><g fill="#d9d9d9" fill-opacity="1"><g transform="translate(109.642232, 94.923048)"><g><path d="M 37.328125 -24.234375 L 47.25 -24.234375 L 47.25 -5.171875 C 44.707031 -3.242188 41.753906 -1.765625 38.390625 -0.734375 C 35.035156 0.296875 31.660156 0.8125 28.265625 0.8125 C 23.378906 0.8125 18.988281 -0.226562 15.09375 -2.3125 C 11.207031 -4.394531 8.15625 -7.28125 5.9375 -10.96875 C 3.726562 -14.664062 2.625 -18.84375 2.625 -23.5 C 2.625 -28.144531 3.726562 -32.3125 5.9375 -36 C 8.15625 -39.695312 11.234375 -42.585938 15.171875 -44.671875 C 19.109375 -46.753906 23.539062 -47.796875 28.46875 -47.796875 C 32.582031 -47.796875 36.316406 -47.097656 39.671875 -45.703125 C 43.023438 -44.316406 45.84375 -42.304688 48.125 -39.671875 L 41.140625 -33.234375 C 37.785156 -36.765625 33.738281 -38.53125 29 -38.53125 C 26 -38.53125 23.332031 -37.898438 21 -36.640625 C 18.675781 -35.390625 16.863281 -33.625 15.5625 -31.34375 C 14.269531 -29.0625 13.625 -26.445312 13.625 -23.5 C 13.625 -20.582031 14.269531 -17.984375 15.5625 -15.703125 C 16.863281 -13.421875 18.664062 -11.640625 20.96875 -10.359375 C 23.28125 -9.085938 25.910156 -8.453125 28.859375 -8.453125 C 31.992188 -8.453125 34.816406 -9.125 37.328125 -10.46875 Z M 37.328125 -24.234375 "/></g></g></g><g fill="#d9d9d9" fill-opacity="1"><g transform="translate(161.382832, 94.923048)"><g><path d="M 43.625 -8.859375 L 43.625 0 L 2.546875 0 L 2.546875 -7.046875 L 28.328125 -38.125 L 3.09375 -38.125 L 3.09375 -46.984375 L 42.625 -46.984375 L 42.625 -39.9375 L 16.921875 -8.859375 Z M 43.625 -8.859375 "/></g></g></g></svg>